<svg xmlns="http://www.w3.org/2000/svg" viewBox="0 0 512 512">
  <defs>
    <linearGradient id="g1" x1="0%" y1="0%" x2="100%" y2="100%">
      <stop offset="0%" style="stop-color:#F5D98C"/>
      <stop offset="100%" style="stop-color:#E8C56E"/>
    </linearGradient>
    <linearGradient id="g2" x1="0%" y1="0%" x2="100%" y2="100%">
      <stop offset="0%" style="stop-color:#C67B3A"/>
      <stop offset="100%" style="stop-color:#8B4513"/>
    </linearGradient>
    <linearGradient id="g3" x1="0%" y1="0%" x2="100%" y2="100%">
      <stop offset="0%" style="stop-color:#0A84FF"/>
      <stop offset="100%" style="stop-color:#5E5CE6"/>
    </linearGradient>
  </defs>
  <!-- Toast shape -->
  <path d="M76 160 Q76 64 160 48 L352 48 Q436 64 436 160 L436 384 Q436 432 384 440 L128 440 Q76 432 76 384 Z"
        fill="url(#g2)" stroke="#6B3410" stroke-width="4"/>
  <path d="M100 168 Q100 86 172 72 L340 72 Q412 86 412 168 L412 376 Q412 416 374 424 L138 424 Q100 416 100 376 Z"
        fill="url(#g1)"/>
  <!-- "T" Letter -->
  <path d="M220 160 L220 360 L292 360 L292 320 L264 320 L264 200 L320 200 L320 160 Z"
        fill="url(#g3)"/>
</svg>
