<svg xmlns="http://www.w3.org/2000/svg" viewBox="0 0 512 512">
  <defs>
    <linearGradient id="crust" x1="0%" y1="0%" x2="100%" y2="100%">
      <stop offset="0%" style="stop-color:#D4923E"/>
      <stop offset="100%" style="stop-color:#B87333"/>
    </linearGradient>
    <linearGradient id="bread" x1="0%" y1="0%" x2="0%" y2="100%">
      <stop offset="0%" style="stop-color:#3A3A3E"/>
      <stop offset="100%" style="stop-color:#2C2C2E"/>
    </linearGradient>
    <linearGradient id="accent" x1="0%" y1="0%" x2="100%" y2="100%">
      <stop offset="0%" style="stop-color:#64D2FF"/>
      <stop offset="100%" style="stop-color:#9B8BFF"/>
    </linearGradient>
    <filter id="glow">
      <feGaussianBlur stdDeviation="4" result="blur"/>
      <feMerge><feMergeNode in="blur"/><feMergeNode in="SourceGraphic"/></feMerge>
    </filter>
  </defs>
  <path d="M130 180 Q130 100 180 80 L332 80 Q382 100 382 180 L382 340 Q382 380 340 390 L172 390 Q130 380 130 340 Z"
        fill="url(#crust)" stroke="#8B5A2B" stroke-width="4"/>
  <path d="M150 180 Q150 118 192 100 L320 100 Q362 118 362 180 L362 335 Q362 365 330 372 L182 372 Q150 365 150 335 Z"
        fill="url(#bread)"/>
  <circle cx="200" cy="150" r="6" fill="#D4A84B" opacity="0.25"/>
  <circle cx="280" cy="140" r="5" fill="#D4A84B" opacity="0.2"/>
  <circle cx="330" cy="200" r="4" fill="#D4A84B" opacity="0.25"/>
  <circle cx="180" cy="250" r="5" fill="#D4A84B" opacity="0.2"/>
  <circle cx="310" cy="300" r="6" fill="#D4A84B" opacity="0.25"/>
  <circle cx="220" cy="320" r="4" fill="#D4A84B" opacity="0.2"/>
  <text x="256" y="260" font-family="'Courier New', monospace" font-size="100"
        font-weight="bold" fill="url(#accent)" text-anchor="middle"
        dominant-baseline="middle" filter="url(#glow)">&lt;/&gt;</text>
  <path d="M220 60 Q215 40 220 20" fill="none" stroke="#64D2FF" stroke-width="3" stroke-linecap="round" opacity="0.4"/>
  <path d="M256 55 Q253 30 256 10" fill="none" stroke="#64D2FF" stroke-width="3" stroke-linecap="round" opacity="0.5"/>
  <path d="M290 60 Q287 35 290 18" fill="none" stroke="#64D2FF" stroke-width="3" stroke-linecap="round" opacity="0.4"/>
</svg>
